<mxfile host="app.diagrams.net" modified="2021-03-04T17:28:24.830Z" agent="5.0 (Macintosh; Intel Mac OS X 10_15_7) AppleWebKit/537.36 (KHTML, like Gecko) Chrome/88.0.4324.192 Safari/537.36" etag="Bx_xPTYhA5mlhRpofM1v" version="14.4.3" type="github">
  <diagram id="TG4RPxdSLbqC5DbjTgF0" name="Page-1">
    <mxGraphModel dx="946" dy="481" grid="1" gridSize="10" guides="1" tooltips="1" connect="1" arrows="1" fold="1" page="1" pageScale="1" pageWidth="850" pageHeight="1100" math="0" shadow="0">
      <root>
        <mxCell id="0" />
        <mxCell id="1" parent="0" />
        <mxCell id="fYSwDqU3Un9m0LISMsy5-1" value="&lt;font&gt;&lt;font style=&quot;font-weight: bold ; font-size: 18px&quot;&gt;Approach&lt;/font&gt;&lt;br&gt;&lt;ol style=&quot;font-size: 13px&quot;&gt;&lt;li&gt;General Requirement&lt;/li&gt;&lt;li&gt;Specific Requirement&lt;/li&gt;&lt;li&gt;Component Design&lt;/li&gt;&lt;li&gt;Props&lt;/li&gt;&lt;li&gt;State&lt;/li&gt;&lt;li&gt;api&lt;/li&gt;&lt;li&gt;Optimization&lt;/li&gt;&lt;li&gt;Accessibility&lt;/li&gt;&lt;/ol&gt;&lt;/font&gt;" style="rounded=0;whiteSpace=wrap;html=1;align=left;" vertex="1" parent="1">
          <mxGeometry x="20" y="20" width="220" height="210" as="geometry" />
        </mxCell>
        <mxCell id="fYSwDqU3Un9m0LISMsy5-2" value="&lt;font&gt;&lt;span style=&quot;font-size: 18px&quot;&gt;&lt;b&gt;General&lt;/b&gt;&lt;/span&gt;&lt;br&gt;&lt;ol style=&quot;font-size: 13px&quot;&gt;&lt;li&gt;User should type text and results should appear in the dropdown.&lt;/li&gt;&lt;li&gt;configurable&lt;/li&gt;&lt;li&gt;Widget should work with any format of data&lt;/li&gt;&lt;/ol&gt;&lt;/font&gt;" style="rounded=0;whiteSpace=wrap;html=1;align=left;" vertex="1" parent="1">
          <mxGeometry x="260" y="20" width="220" height="210" as="geometry" />
        </mxCell>
        <mxCell id="fYSwDqU3Un9m0LISMsy5-3" value="&lt;span style=&quot;font-size: 18px&quot;&gt;&lt;b&gt;Specific&lt;/b&gt;&lt;br&gt;&lt;ol style=&quot;font-size: 13px&quot;&gt;&lt;li&gt;We should be able to define to cache results.&lt;/li&gt;&lt;li&gt;Able to change the look and feel of results&lt;/li&gt;&lt;li&gt;Performant&amp;nbsp;&lt;/li&gt;&lt;li&gt;Accessible&lt;/li&gt;&lt;li&gt;Should work on multiple screens&lt;/li&gt;&lt;/ol&gt;&lt;/span&gt;" style="rounded=0;whiteSpace=wrap;html=1;align=left;" vertex="1" parent="1">
          <mxGeometry x="510" y="20" width="220" height="210" as="geometry" />
        </mxCell>
        <mxCell id="fYSwDqU3Un9m0LISMsy5-14" value="" style="group" vertex="1" connectable="0" parent="1">
          <mxGeometry x="30" y="280" width="270" height="290" as="geometry" />
        </mxCell>
        <mxCell id="fYSwDqU3Un9m0LISMsy5-6" value="" style="group" vertex="1" connectable="0" parent="fYSwDqU3Un9m0LISMsy5-14">
          <mxGeometry width="270" height="50" as="geometry" />
        </mxCell>
        <mxCell id="fYSwDqU3Un9m0LISMsy5-4" value="" style="rounded=0;whiteSpace=wrap;html=1;" vertex="1" parent="fYSwDqU3Un9m0LISMsy5-6">
          <mxGeometry width="270" height="50" as="geometry" />
        </mxCell>
        <mxCell id="fYSwDqU3Un9m0LISMsy5-5" value="Input Field" style="rounded=0;whiteSpace=wrap;html=1;fillColor=#dae8fc;strokeColor=#6c8ebf;" vertex="1" parent="fYSwDqU3Un9m0LISMsy5-6">
          <mxGeometry x="10" y="10" width="250" height="30" as="geometry" />
        </mxCell>
        <mxCell id="fYSwDqU3Un9m0LISMsy5-13" value="" style="group;fillColor=#fff2cc;strokeColor=#d6b656;" vertex="1" connectable="0" parent="fYSwDqU3Un9m0LISMsy5-14">
          <mxGeometry y="60" width="270" height="230" as="geometry" />
        </mxCell>
        <mxCell id="fYSwDqU3Un9m0LISMsy5-7" value="" style="rounded=0;whiteSpace=wrap;html=1;" vertex="1" parent="fYSwDqU3Un9m0LISMsy5-13">
          <mxGeometry width="270" height="230" as="geometry" />
        </mxCell>
        <mxCell id="fYSwDqU3Un9m0LISMsy5-8" value="Search Result #1" style="rounded=0;whiteSpace=wrap;html=1;fillColor=#fff2cc;strokeColor=#d6b656;" vertex="1" parent="fYSwDqU3Un9m0LISMsy5-13">
          <mxGeometry x="10" y="20" width="250" height="30" as="geometry" />
        </mxCell>
        <mxCell id="fYSwDqU3Un9m0LISMsy5-9" value="Search Result #2" style="rounded=0;whiteSpace=wrap;html=1;fillColor=#fff2cc;strokeColor=#d6b656;" vertex="1" parent="fYSwDqU3Un9m0LISMsy5-13">
          <mxGeometry x="10" y="60" width="250" height="30" as="geometry" />
        </mxCell>
        <mxCell id="fYSwDqU3Un9m0LISMsy5-10" value="Search Result #3" style="rounded=0;whiteSpace=wrap;html=1;fillColor=#fff2cc;strokeColor=#d6b656;" vertex="1" parent="fYSwDqU3Un9m0LISMsy5-13">
          <mxGeometry x="10" y="100" width="250" height="30" as="geometry" />
        </mxCell>
        <mxCell id="fYSwDqU3Un9m0LISMsy5-11" value="Search Result #4" style="rounded=0;whiteSpace=wrap;html=1;fillColor=#fff2cc;strokeColor=#d6b656;" vertex="1" parent="fYSwDqU3Un9m0LISMsy5-13">
          <mxGeometry x="10" y="140" width="250" height="30" as="geometry" />
        </mxCell>
        <mxCell id="fYSwDqU3Un9m0LISMsy5-12" value="Search Result #5" style="rounded=0;whiteSpace=wrap;html=1;fillColor=#fff2cc;strokeColor=#d6b656;" vertex="1" parent="fYSwDqU3Un9m0LISMsy5-13">
          <mxGeometry x="10" y="180" width="250" height="30" as="geometry" />
        </mxCell>
        <mxCell id="fYSwDqU3Un9m0LISMsy5-27" value="&lt;font style=&quot;font-size: 20px&quot;&gt;Props&amp;lt;T&amp;gt; {&lt;br&gt;&amp;nbsp; getResults: (query) =&amp;gt; Promise&amp;lt;T[]&amp;gt;,&lt;br&gt;&amp;nbsp; value: T,&lt;br&gt;&amp;nbsp; onChange: (val: T) =&amp;gt; void,&lt;br&gt;&amp;nbsp; renderItem: (val: T) =&amp;gt; HTMLElement,&lt;br&gt;&amp;nbsp; cacheSize: number,&lt;br&gt;&amp;nbsp; cacheTimeout: number,&lt;br&gt;&amp;nbsp; className: string,&lt;br&gt;&amp;nbsp; maxResult: number,&lt;br&gt;&amp;nbsp; minQuery: number&lt;br&gt;}&lt;/font&gt;" style="text;html=1;strokeColor=none;fillColor=none;align=left;verticalAlign=middle;whiteSpace=wrap;rounded=0;" vertex="1" parent="1">
          <mxGeometry x="360" y="300" width="410" height="380" as="geometry" />
        </mxCell>
        <mxCell id="fYSwDqU3Un9m0LISMsy5-28" value="&lt;font style=&quot;font-size: 20px&quot;&gt;State {&lt;br&gt;&amp;nbsp; data: T[],&lt;br&gt;&amp;nbsp; resultMap: { query: T[] }&lt;br&gt;&amp;nbsp; currentPage: number,&lt;br&gt;&amp;nbsp; pageSize: number,&lt;br&gt;&amp;nbsp; cacheSize: number,&lt;br&gt;&amp;nbsp; minQuery: number,&lt;br&gt;&amp;nbsp; template: (val: T) =&amp;gt; HTMLElement,&lt;br&gt;&amp;nbsp; onQuery: (query: string) =&amp;gt; Promise&amp;lt;T[]&amp;gt;&lt;br&gt;}&lt;/font&gt;" style="text;html=1;strokeColor=none;fillColor=none;align=left;verticalAlign=middle;whiteSpace=wrap;rounded=0;" vertex="1" parent="1">
          <mxGeometry x="720" y="320" width="420" height="270" as="geometry" />
        </mxCell>
        <mxCell id="fYSwDqU3Un9m0LISMsy5-60" value="" style="group" vertex="1" connectable="0" parent="1">
          <mxGeometry x="50" y="650" width="400" height="290" as="geometry" />
        </mxCell>
        <mxCell id="fYSwDqU3Un9m0LISMsy5-61" value="&lt;font style=&quot;font-size: 16px&quot;&gt;Search Suggestions&lt;/font&gt;" style="rounded=0;whiteSpace=wrap;html=1;align=center;fillColor=#f8cecc;strokeColor=#b85450;" vertex="1" parent="fYSwDqU3Un9m0LISMsy5-60">
          <mxGeometry x="110" width="120" height="60" as="geometry" />
        </mxCell>
        <mxCell id="fYSwDqU3Un9m0LISMsy5-62" value="&lt;font style=&quot;font-size: 16px&quot;&gt;Search input&lt;/font&gt;" style="rounded=0;whiteSpace=wrap;html=1;align=center;fillColor=#dae8fc;strokeColor=#6c8ebf;" vertex="1" parent="fYSwDqU3Un9m0LISMsy5-60">
          <mxGeometry y="110" width="120" height="60" as="geometry" />
        </mxCell>
        <mxCell id="fYSwDqU3Un9m0LISMsy5-63" style="edgeStyle=orthogonalEdgeStyle;rounded=0;orthogonalLoop=1;jettySize=auto;html=1;" edge="1" parent="fYSwDqU3Un9m0LISMsy5-60" source="fYSwDqU3Un9m0LISMsy5-61" target="fYSwDqU3Un9m0LISMsy5-62">
          <mxGeometry relative="1" as="geometry">
            <Array as="points">
              <mxPoint x="170" y="80" />
              <mxPoint x="60" y="80" />
            </Array>
          </mxGeometry>
        </mxCell>
        <mxCell id="fYSwDqU3Un9m0LISMsy5-64" value="&lt;font style=&quot;font-size: 16px&quot;&gt;Search List&lt;/font&gt;" style="rounded=0;whiteSpace=wrap;html=1;align=center;fillColor=#dae8fc;strokeColor=#6c8ebf;" vertex="1" parent="fYSwDqU3Un9m0LISMsy5-60">
          <mxGeometry x="140" y="110" width="120" height="60" as="geometry" />
        </mxCell>
        <mxCell id="fYSwDqU3Un9m0LISMsy5-65" style="edgeStyle=orthogonalEdgeStyle;rounded=0;orthogonalLoop=1;jettySize=auto;html=1;" edge="1" parent="fYSwDqU3Un9m0LISMsy5-60" source="fYSwDqU3Un9m0LISMsy5-61" target="fYSwDqU3Un9m0LISMsy5-64">
          <mxGeometry relative="1" as="geometry" />
        </mxCell>
        <mxCell id="fYSwDqU3Un9m0LISMsy5-68" value="&lt;font style=&quot;font-size: 16px&quot;&gt;List Item&lt;/font&gt;" style="rounded=0;whiteSpace=wrap;html=1;align=center;fillColor=#d5e8d4;strokeColor=#82b366;" vertex="1" parent="fYSwDqU3Un9m0LISMsy5-60">
          <mxGeometry x="140" y="230" width="120" height="60" as="geometry" />
        </mxCell>
        <mxCell id="fYSwDqU3Un9m0LISMsy5-69" style="edgeStyle=orthogonalEdgeStyle;rounded=0;orthogonalLoop=1;jettySize=auto;html=1;entryX=0.5;entryY=0;entryDx=0;entryDy=0;" edge="1" parent="fYSwDqU3Un9m0LISMsy5-60" source="fYSwDqU3Un9m0LISMsy5-64" target="fYSwDqU3Un9m0LISMsy5-68">
          <mxGeometry relative="1" as="geometry" />
        </mxCell>
        <mxCell id="fYSwDqU3Un9m0LISMsy5-87" style="edgeStyle=orthogonalEdgeStyle;rounded=0;orthogonalLoop=1;jettySize=auto;html=1;" edge="1" parent="1" source="fYSwDqU3Un9m0LISMsy5-73" target="fYSwDqU3Un9m0LISMsy5-86">
          <mxGeometry relative="1" as="geometry" />
        </mxCell>
        <mxCell id="fYSwDqU3Un9m0LISMsy5-73" value="&lt;font style=&quot;font-size: 16px&quot;&gt;Optimizations&lt;/font&gt;" style="ellipse;whiteSpace=wrap;html=1;align=center;" vertex="1" parent="1">
          <mxGeometry x="650" y="680" width="90" height="80" as="geometry" />
        </mxCell>
        <mxCell id="fYSwDqU3Un9m0LISMsy5-102" style="edgeStyle=orthogonalEdgeStyle;rounded=0;orthogonalLoop=1;jettySize=auto;html=1;entryX=-0.033;entryY=0.375;entryDx=0;entryDy=0;entryPerimeter=0;" edge="1" parent="1" source="fYSwDqU3Un9m0LISMsy5-74" target="fYSwDqU3Un9m0LISMsy5-101">
          <mxGeometry relative="1" as="geometry" />
        </mxCell>
        <mxCell id="fYSwDqU3Un9m0LISMsy5-74" value="&lt;font style=&quot;font-size: 16px&quot;&gt;Rendering&lt;/font&gt;" style="ellipse;whiteSpace=wrap;html=1;align=center;" vertex="1" parent="1">
          <mxGeometry x="650" y="800" width="90" height="80" as="geometry" />
        </mxCell>
        <mxCell id="fYSwDqU3Un9m0LISMsy5-75" style="edgeStyle=orthogonalEdgeStyle;rounded=0;orthogonalLoop=1;jettySize=auto;html=1;entryX=0.5;entryY=0;entryDx=0;entryDy=0;" edge="1" parent="1" source="fYSwDqU3Un9m0LISMsy5-73" target="fYSwDqU3Un9m0LISMsy5-74">
          <mxGeometry x="470" y="680" as="geometry">
            <Array as="points">
              <mxPoint x="695" y="790" />
              <mxPoint x="695" y="790" />
            </Array>
          </mxGeometry>
        </mxCell>
        <mxCell id="fYSwDqU3Un9m0LISMsy5-89" style="edgeStyle=orthogonalEdgeStyle;rounded=0;orthogonalLoop=1;jettySize=auto;html=1;" edge="1" parent="1" source="fYSwDqU3Un9m0LISMsy5-76" target="fYSwDqU3Un9m0LISMsy5-88">
          <mxGeometry relative="1" as="geometry" />
        </mxCell>
        <mxCell id="fYSwDqU3Un9m0LISMsy5-100" style="edgeStyle=orthogonalEdgeStyle;rounded=0;orthogonalLoop=1;jettySize=auto;html=1;entryX=0.5;entryY=0;entryDx=0;entryDy=0;" edge="1" parent="1" source="fYSwDqU3Un9m0LISMsy5-76" target="fYSwDqU3Un9m0LISMsy5-99">
          <mxGeometry relative="1" as="geometry" />
        </mxCell>
        <mxCell id="fYSwDqU3Un9m0LISMsy5-76" value="&lt;font style=&quot;font-size: 16px&quot;&gt;Network&lt;/font&gt;" style="ellipse;whiteSpace=wrap;html=1;align=center;" vertex="1" parent="1">
          <mxGeometry x="530" y="800" width="90" height="80" as="geometry" />
        </mxCell>
        <mxCell id="fYSwDqU3Un9m0LISMsy5-77" style="edgeStyle=orthogonalEdgeStyle;rounded=0;orthogonalLoop=1;jettySize=auto;html=1;" edge="1" parent="1" source="fYSwDqU3Un9m0LISMsy5-73" target="fYSwDqU3Un9m0LISMsy5-76">
          <mxGeometry x="470" y="680" as="geometry">
            <Array as="points">
              <mxPoint x="695" y="780" />
              <mxPoint x="575" y="780" />
            </Array>
          </mxGeometry>
        </mxCell>
        <mxCell id="fYSwDqU3Un9m0LISMsy5-78" value="&lt;font style=&quot;font-size: 16px&quot;&gt;Server Cache&lt;/font&gt;" style="ellipse;whiteSpace=wrap;html=1;align=center;fillColor=#f5f5f5;strokeColor=#666666;fontColor=#333333;" vertex="1" parent="1">
          <mxGeometry x="530" y="940" width="90" height="80" as="geometry" />
        </mxCell>
        <mxCell id="fYSwDqU3Un9m0LISMsy5-79" style="edgeStyle=orthogonalEdgeStyle;rounded=0;orthogonalLoop=1;jettySize=auto;html=1;entryX=0.5;entryY=0;entryDx=0;entryDy=0;" edge="1" parent="1" source="fYSwDqU3Un9m0LISMsy5-76" target="fYSwDqU3Un9m0LISMsy5-78">
          <mxGeometry x="470" y="680" as="geometry">
            <Array as="points">
              <mxPoint x="575" y="920" />
              <mxPoint x="575" y="920" />
            </Array>
          </mxGeometry>
        </mxCell>
        <mxCell id="fYSwDqU3Un9m0LISMsy5-80" value="&lt;span style=&quot;font-size: 16px&quot;&gt;Browser Cache&lt;/span&gt;" style="ellipse;whiteSpace=wrap;html=1;align=center;fillColor=#f5f5f5;strokeColor=#666666;fontColor=#333333;" vertex="1" parent="1">
          <mxGeometry x="440" y="940" width="90" height="80" as="geometry" />
        </mxCell>
        <mxCell id="fYSwDqU3Un9m0LISMsy5-81" style="edgeStyle=orthogonalEdgeStyle;rounded=0;orthogonalLoop=1;jettySize=auto;html=1;" edge="1" parent="1" source="fYSwDqU3Un9m0LISMsy5-76" target="fYSwDqU3Un9m0LISMsy5-80">
          <mxGeometry x="470" y="680" as="geometry">
            <Array as="points">
              <mxPoint x="575" y="900" />
            </Array>
          </mxGeometry>
        </mxCell>
        <mxCell id="fYSwDqU3Un9m0LISMsy5-92" style="edgeStyle=orthogonalEdgeStyle;rounded=0;orthogonalLoop=1;jettySize=auto;html=1;" edge="1" parent="1" source="fYSwDqU3Un9m0LISMsy5-82" target="fYSwDqU3Un9m0LISMsy5-91">
          <mxGeometry relative="1" as="geometry" />
        </mxCell>
        <mxCell id="fYSwDqU3Un9m0LISMsy5-82" value="&lt;span style=&quot;font-size: 16px&quot;&gt;DOM&lt;/span&gt;" style="ellipse;whiteSpace=wrap;html=1;align=center;" vertex="1" parent="1">
          <mxGeometry x="710" y="930" width="90" height="80" as="geometry" />
        </mxCell>
        <mxCell id="fYSwDqU3Un9m0LISMsy5-83" style="edgeStyle=orthogonalEdgeStyle;rounded=0;orthogonalLoop=1;jettySize=auto;html=1;entryX=0.389;entryY=-0.037;entryDx=0;entryDy=0;entryPerimeter=0;" edge="1" parent="1" source="fYSwDqU3Un9m0LISMsy5-74" target="fYSwDqU3Un9m0LISMsy5-82">
          <mxGeometry x="470" y="680" as="geometry" />
        </mxCell>
        <mxCell id="fYSwDqU3Un9m0LISMsy5-84" value="&lt;font style=&quot;font-size: 16px&quot;&gt;Loader / Spinner&lt;/font&gt;" style="ellipse;whiteSpace=wrap;html=1;align=center;" vertex="1" parent="1">
          <mxGeometry x="825" y="930" width="90" height="80" as="geometry" />
        </mxCell>
        <mxCell id="fYSwDqU3Un9m0LISMsy5-85" style="edgeStyle=orthogonalEdgeStyle;rounded=0;orthogonalLoop=1;jettySize=auto;html=1;entryX=0.5;entryY=0;entryDx=0;entryDy=0;" edge="1" parent="1" source="fYSwDqU3Un9m0LISMsy5-74" target="fYSwDqU3Un9m0LISMsy5-84">
          <mxGeometry x="470" y="680" as="geometry">
            <Array as="points">
              <mxPoint x="695" y="900" />
              <mxPoint x="870" y="900" />
            </Array>
          </mxGeometry>
        </mxCell>
        <mxCell id="fYSwDqU3Un9m0LISMsy5-94" style="edgeStyle=orthogonalEdgeStyle;rounded=0;orthogonalLoop=1;jettySize=auto;html=1;entryX=0.5;entryY=0;entryDx=0;entryDy=0;" edge="1" parent="1" source="fYSwDqU3Un9m0LISMsy5-86" target="fYSwDqU3Un9m0LISMsy5-93">
          <mxGeometry relative="1" as="geometry" />
        </mxCell>
        <mxCell id="fYSwDqU3Un9m0LISMsy5-96" style="edgeStyle=orthogonalEdgeStyle;rounded=0;orthogonalLoop=1;jettySize=auto;html=1;" edge="1" parent="1" source="fYSwDqU3Un9m0LISMsy5-86" target="fYSwDqU3Un9m0LISMsy5-95">
          <mxGeometry relative="1" as="geometry" />
        </mxCell>
        <mxCell id="fYSwDqU3Un9m0LISMsy5-86" value="&lt;font style=&quot;font-size: 16px&quot;&gt;Javascript&lt;/font&gt;" style="ellipse;whiteSpace=wrap;html=1;align=center;" vertex="1" parent="1">
          <mxGeometry x="1020" y="780" width="90" height="80" as="geometry" />
        </mxCell>
        <mxCell id="fYSwDqU3Un9m0LISMsy5-108" style="edgeStyle=orthogonalEdgeStyle;rounded=0;orthogonalLoop=1;jettySize=auto;html=1;entryX=0.5;entryY=0;entryDx=0;entryDy=0;" edge="1" parent="1" source="fYSwDqU3Un9m0LISMsy5-88" target="fYSwDqU3Un9m0LISMsy5-107">
          <mxGeometry relative="1" as="geometry" />
        </mxCell>
        <mxCell id="fYSwDqU3Un9m0LISMsy5-88" value="&lt;font style=&quot;font-size: 16px&quot;&gt;Component Cache&lt;/font&gt;" style="ellipse;whiteSpace=wrap;html=1;align=center;" vertex="1" parent="1">
          <mxGeometry x="610" y="990" width="90" height="80" as="geometry" />
        </mxCell>
        <mxCell id="fYSwDqU3Un9m0LISMsy5-91" value="&lt;span style=&quot;font-size: 16px&quot;&gt;Virtualization&lt;/span&gt;" style="ellipse;whiteSpace=wrap;html=1;align=center;" vertex="1" parent="1">
          <mxGeometry x="720" y="1050" width="90" height="80" as="geometry" />
        </mxCell>
        <mxCell id="fYSwDqU3Un9m0LISMsy5-93" value="&lt;span style=&quot;font-size: 16px&quot;&gt;Concise code&lt;/span&gt;" style="ellipse;whiteSpace=wrap;html=1;align=center;" vertex="1" parent="1">
          <mxGeometry x="940" y="900" width="90" height="80" as="geometry" />
        </mxCell>
        <mxCell id="fYSwDqU3Un9m0LISMsy5-98" style="edgeStyle=orthogonalEdgeStyle;rounded=0;orthogonalLoop=1;jettySize=auto;html=1;entryX=0.5;entryY=0;entryDx=0;entryDy=0;" edge="1" parent="1" source="fYSwDqU3Un9m0LISMsy5-95" target="fYSwDqU3Un9m0LISMsy5-97">
          <mxGeometry relative="1" as="geometry" />
        </mxCell>
        <mxCell id="fYSwDqU3Un9m0LISMsy5-95" value="&lt;span style=&quot;font-size: 16px&quot;&gt;async operations&lt;/span&gt;" style="ellipse;whiteSpace=wrap;html=1;align=center;" vertex="1" parent="1">
          <mxGeometry x="1070" y="900" width="90" height="80" as="geometry" />
        </mxCell>
        <mxCell id="fYSwDqU3Un9m0LISMsy5-97" value="&lt;span style=&quot;font-size: 16px&quot;&gt;web workers&lt;/span&gt;" style="ellipse;whiteSpace=wrap;html=1;align=center;" vertex="1" parent="1">
          <mxGeometry x="1070" y="1030" width="90" height="80" as="geometry" />
        </mxCell>
        <mxCell id="fYSwDqU3Un9m0LISMsy5-99" value="&lt;font style=&quot;font-size: 16px&quot;&gt;Debounce&lt;/font&gt;" style="ellipse;whiteSpace=wrap;html=1;align=center;" vertex="1" parent="1">
          <mxGeometry x="350" y="1030" width="90" height="80" as="geometry" />
        </mxCell>
        <mxCell id="fYSwDqU3Un9m0LISMsy5-104" style="edgeStyle=orthogonalEdgeStyle;rounded=0;orthogonalLoop=1;jettySize=auto;html=1;entryX=0.5;entryY=0;entryDx=0;entryDy=0;" edge="1" parent="1" source="fYSwDqU3Un9m0LISMsy5-101" target="fYSwDqU3Un9m0LISMsy5-103">
          <mxGeometry relative="1" as="geometry" />
        </mxCell>
        <mxCell id="fYSwDqU3Un9m0LISMsy5-106" style="edgeStyle=orthogonalEdgeStyle;rounded=0;orthogonalLoop=1;jettySize=auto;html=1;entryX=0.5;entryY=0;entryDx=0;entryDy=0;" edge="1" parent="1" source="fYSwDqU3Un9m0LISMsy5-101" target="fYSwDqU3Un9m0LISMsy5-105">
          <mxGeometry relative="1" as="geometry" />
        </mxCell>
        <mxCell id="fYSwDqU3Un9m0LISMsy5-101" value="&lt;font style=&quot;font-size: 16px&quot;&gt;CSS&lt;/font&gt;" style="ellipse;whiteSpace=wrap;html=1;align=center;" vertex="1" parent="1">
          <mxGeometry x="840" y="1030" width="90" height="80" as="geometry" />
        </mxCell>
        <mxCell id="fYSwDqU3Un9m0LISMsy5-103" value="&lt;span style=&quot;font-size: 16px&quot;&gt;prefer css animation over js animation&lt;/span&gt;" style="ellipse;whiteSpace=wrap;html=1;align=center;" vertex="1" parent="1">
          <mxGeometry x="760" y="1150" width="90" height="80" as="geometry" />
        </mxCell>
        <mxCell id="fYSwDqU3Un9m0LISMsy5-105" value="&lt;font style=&quot;font-size: 16px&quot;&gt;avoid reflows&lt;/font&gt;" style="ellipse;whiteSpace=wrap;html=1;align=center;" vertex="1" parent="1">
          <mxGeometry x="900" y="1150" width="90" height="80" as="geometry" />
        </mxCell>
        <mxCell id="fYSwDqU3Un9m0LISMsy5-107" value="&lt;font style=&quot;font-size: 16px&quot;&gt;Clear cache on timeout&lt;/font&gt;" style="ellipse;whiteSpace=wrap;html=1;align=center;" vertex="1" parent="1">
          <mxGeometry x="610" y="1110" width="90" height="80" as="geometry" />
        </mxCell>
        <mxCell id="fYSwDqU3Un9m0LISMsy5-109" value="&lt;font&gt;&lt;font style=&quot;font-weight: bold ; font-size: 18px&quot;&gt;Accessibility&lt;/font&gt;&lt;br&gt;&lt;ol style=&quot;font-size: 13px&quot;&gt;&lt;li&gt;&lt;font style=&quot;font-size: 13px&quot;&gt;Keyboard shortcuts&lt;/font&gt;&lt;/li&gt;&lt;/ol&gt;&lt;ul&gt;&lt;li&gt;&lt;font&gt;&lt;span style=&quot;font-size: 13px&quot;&gt;enter for search&lt;/span&gt;&lt;/font&gt;&lt;/li&gt;&lt;li&gt;&lt;font&gt;&lt;span style=&quot;font-size: 13px&quot;&gt;navigate with arrows&lt;/span&gt;&lt;/font&gt;&lt;/li&gt;&lt;li&gt;&lt;font&gt;&lt;span style=&quot;font-size: 13px&quot;&gt;tab index&lt;/span&gt;&lt;/font&gt;&lt;/li&gt;&lt;li&gt;&lt;font&gt;&lt;span style=&quot;font-size: 13px&quot;&gt;&amp;nbsp;escape for close&lt;/span&gt;&lt;/font&gt;&lt;/li&gt;&lt;/ul&gt;&lt;ol style=&quot;font-size: 13px&quot;&gt;&lt;li&gt;Screen reader friendly - aria attributes&lt;/li&gt;&lt;li&gt;define sizes in rem&lt;/li&gt;&lt;/ol&gt;&lt;/font&gt;" style="rounded=0;whiteSpace=wrap;html=1;align=left;" vertex="1" parent="1">
          <mxGeometry x="1290" y="875" width="310" height="210" as="geometry" />
        </mxCell>
      </root>
    </mxGraphModel>
  </diagram>
</mxfile>
